<svg width="243" height="32" viewBox="0 0 243 32" fill="none" xmlns="http://www.w3.org/2000/svg">
<g clip-path="url(#clip0_18113_1649)">
<path d="M30.4653 14.8694C30.4653 14.8694 27.8403 14.4618 26.5726 17.5393C26.5726 17.5393 16.9775 17.7207 12.1809 18.5349C12.1809 18.5349 11.3667 15.3219 8.1985 15.1853C5.03033 15.0498 3.80851 17.9011 3.89921 19.5305C3.89921 19.5305 4.21612 15.6877 8.01813 15.8192C11.5185 15.9394 11.1415 19.8016 11.1415 19.8016C11.1415 19.8016 21.0077 17.5841 27.3441 18.4442C27.3441 18.4442 27.073 15.2312 30.4674 14.8684L30.4653 14.8694Z" fill="white"/>
<path d="M30.7361 13.0614C27.7493 12.7445 23.2269 9.69048 20.8698 9.25943C16.4951 8.45949 13.8548 9.44081 11.9992 10.3906C10.1435 11.3403 8.74031 11.8845 3.89278 13.2418C-0.953728 14.6002 0.0958738 17.859 0.0958738 17.859C0.366936 19.7595 3.03782 19.8054 3.03782 19.8054C2.6302 16.1848 4.48586 14.804 9.93971 13.9439C14.7669 13.1827 27.4772 13.4843 27.4772 13.4843C21.1868 11.6898 11.5467 12.7893 11.5467 12.7893C14.1208 9.68131 17.9687 9.55902 20.7792 10.2092C22.6898 10.6514 27.6128 12.9697 30.2378 13.4833C32.8628 13.9969 32.3197 17.858 32.3197 17.858C32.3197 17.858 33.7229 13.3773 30.7361 13.0604V13.0614Z" fill="white"/>
<path d="M8.44762 21.992C9.97008 21.5704 10.8625 19.9944 10.4408 18.4719C10.0192 16.9495 8.44318 16.0571 6.92072 16.4787C5.39826 16.9004 4.50587 18.4764 4.92751 19.9988C5.34916 21.5213 6.92516 22.4137 8.44762 21.992Z" fill="white"/>
<path d="M30.0236 19.8051C31.2038 19.8051 32.1605 18.8483 32.1605 17.6682C32.1605 16.488 31.2038 15.5312 30.0236 15.5312C28.8434 15.5312 27.8867 16.488 27.8867 17.6682C27.8867 18.8483 28.8434 19.8051 30.0236 19.8051Z" fill="white"/>
<path d="M36.9916 5.35178L22.2891 0.0273438V2.01038L35.1268 6.6592C35.081 8.50059 34.8313 12.1834 33.6716 16.1392C32.729 19.3543 31.3778 22.1199 29.6536 24.3608C27.6869 26.9175 25.2116 28.8038 22.2891 29.9767V31.9709C37.8894 26.3764 36.9916 5.35076 36.9916 5.35076V5.35178Z" fill="white"/>
<path d="M14.8907 24.3201C14.1784 23.3887 13.5292 22.3656 12.9474 21.2589C15.0507 20.4692 18.7508 19.4583 24.6214 19.0028C24.6214 19.0028 19.676 18.6268 12.5061 20.3744C11.91 20.5201 11.2976 20.6801 10.6719 20.8564C10.8492 21.2416 11.0367 21.6258 11.2344 22.0069C13.3988 26.1757 16.836 30.0165 22.2878 31.972V29.9778C19.3489 28.7987 16.8625 26.8972 14.8907 24.3191V24.3201Z" fill="white"/>
<path d="M14.8942 7.63135C12.4078 8.2173 10.7172 8.89801 9.60852 9.28422C9.50662 8.21933 9.46382 7.32055 9.44853 6.66022L22.2873 2.0114V0.0273438L7.5837 5.35178C7.5837 5.35178 7.4869 7.62524 7.91183 10.8759C7.92712 10.9972 7.94444 11.1195 7.96176 11.2428C8.32658 11.0461 8.93494 10.7302 9.72775 10.3644C10.5134 10.0016 11.4805 9.58993 12.5688 9.19557C16.7275 7.69148 19.7581 7.27062 23.2778 8.96323C23.2778 8.96323 20.4072 6.33107 14.8953 7.63135H14.8942Z" fill="white"/>
</g>
<path d="M51.2212 23.22C50.4878 23.22 49.8078 23.16 49.1812 23.04C48.5678 22.92 47.9212 22.76 47.2412 22.56C46.8012 22.4267 46.4812 22.3533 46.2812 22.34L46.4612 18.6H48.3212L48.8212 21.16C48.9678 21.3333 49.2345 21.4867 49.6212 21.62C50.0212 21.7533 50.4945 21.82 51.0412 21.82C51.8545 21.82 52.4612 21.64 52.8612 21.28C53.2745 20.92 53.4812 20.4267 53.4812 19.8C53.4812 19.36 53.3478 18.98 53.0812 18.66C52.8278 18.3267 52.4678 18.0267 52.0012 17.76C51.5478 17.48 50.9212 17.16 50.1212 16.8C49.0678 16.32 48.1745 15.7133 47.4412 14.98C46.7212 14.2333 46.3612 13.2533 46.3612 12.04C46.3612 11.2933 46.5545 10.6133 46.9412 10C47.3278 9.38667 47.9145 8.89333 48.7012 8.52C49.4878 8.14667 50.4678 7.96 51.6412 7.96C52.3478 7.96 52.9612 8.00667 53.4812 8.1C54.0145 8.19333 54.5812 8.32 55.1812 8.48C55.5012 8.58667 55.7478 8.64667 55.9212 8.66L55.8012 12.22H53.9812L53.5212 9.76C53.4278 9.64 53.2145 9.53333 52.8812 9.44C52.5612 9.33333 52.2012 9.28 51.8012 9.28C51.0678 9.28 50.5145 9.45333 50.1412 9.8C49.7812 10.1467 49.6012 10.5933 49.6012 11.14C49.6012 11.62 49.7545 12.04 50.0612 12.4C50.3678 12.76 50.7345 13.0667 51.1612 13.32C51.6012 13.56 52.2678 13.9 53.1612 14.34C53.8678 14.6867 54.4812 15.04 55.0012 15.4C55.5345 15.7467 55.9878 16.2 56.3612 16.76C56.7345 17.32 56.9212 17.9733 56.9212 18.72C56.9212 19.4533 56.7412 20.16 56.3812 20.84C56.0345 21.52 55.4345 22.0867 54.5812 22.54C53.7278 22.9933 52.6078 23.22 51.2212 23.22ZM63.3887 23.22C61.562 23.22 60.2087 22.7067 59.3287 21.68C58.4487 20.64 58.0087 19.2267 58.0087 17.44C58.0087 16.2267 58.2353 15.18 58.6887 14.3C59.142 13.42 59.7753 12.7533 60.5887 12.3C61.4153 11.8333 62.382 11.6 63.4887 11.6C64.8887 11.6 65.9553 11.9533 66.6887 12.66C67.4353 13.3667 67.822 14.3667 67.8487 15.66C67.8487 16.5133 67.7887 17.2 67.6687 17.72H61.4087C61.4753 18.8533 61.7487 19.72 62.2287 20.32C62.722 20.9067 63.4087 21.2 64.2887 21.2C64.782 21.2 65.2953 21.12 65.8287 20.96C66.3753 20.7867 66.8153 20.5933 67.1487 20.38L67.7087 21.6C67.362 21.9867 66.7687 22.3533 65.9287 22.7C65.102 23.0467 64.2553 23.22 63.3887 23.22ZM64.6687 16.4L64.6887 15.56C64.6887 14.72 64.5753 14.08 64.3487 13.64C64.122 13.2 63.7353 12.98 63.1887 12.98C62.6287 12.98 62.1953 13.2267 61.8887 13.72C61.582 14.2 61.4153 15.0933 61.3887 16.4H64.6687ZM69.0829 17.52C69.0829 16.3333 69.3229 15.2933 69.8029 14.4C70.2829 13.5067 70.9562 12.82 71.8229 12.34C72.6896 11.8467 73.6896 11.6 74.8229 11.6C75.3829 11.6 75.8629 11.64 76.2629 11.72C76.6762 11.7867 77.0962 11.8867 77.5229 12.02C77.9096 12.1267 78.1496 12.1867 78.2429 12.2L78.1029 15.82H76.0829L75.5629 13.52C75.5229 13.3467 75.4096 13.2267 75.2229 13.16C75.0496 13.08 74.8362 13.04 74.5829 13.04C73.9562 13.04 73.4629 13.3467 73.1029 13.96C72.7562 14.5733 72.5829 15.5933 72.5829 17.02C72.5829 18.38 72.8029 19.4267 73.2429 20.16C73.6962 20.88 74.3029 21.24 75.0629 21.24C76.0496 21.24 76.9562 20.9867 77.7829 20.48L78.3229 21.66C78.0029 22.02 77.4762 22.3733 76.7429 22.72C76.0096 23.0533 75.1962 23.22 74.3029 23.22C72.5562 23.22 71.2496 22.7067 70.3829 21.68C69.5162 20.64 69.0829 19.2533 69.0829 17.52ZM88.7916 23.2C88.3116 23.2 87.965 23.1 87.7516 22.9C87.5383 22.6867 87.4316 22.38 87.4316 21.98V21.54C87.1116 21.98 86.6316 22.3733 85.9916 22.72C85.3516 23.0533 84.705 23.22 84.0516 23.22C82.745 23.22 81.8116 22.9 81.2516 22.26C80.705 21.6067 80.4316 20.52 80.4316 19V13.44L79.4916 13.18V11.9L83.2516 11.64H83.2716L83.7116 11.92V19.08C83.7116 19.9467 83.8183 20.5533 84.0316 20.9C84.245 21.2333 84.625 21.4 85.1716 21.4C85.9183 21.4 86.545 21.1467 87.0516 20.64V13.44L85.8116 13.14V11.9L89.7716 11.64H89.8316L90.3116 11.92V21.62H91.3716V22.9C90.9183 22.9933 90.4983 23.0667 90.1116 23.12C89.7383 23.1733 89.2983 23.2 88.7916 23.2ZM92.6627 21.68L93.8827 21.5V13.98L92.7027 13.62V12.06L96.0227 11.62H96.0827L96.6427 12.04V12.52L96.5827 14.18H96.6427C96.7361 13.8733 96.9494 13.52 97.2827 13.12C97.6161 12.7067 98.0361 12.3533 98.5427 12.06C99.0627 11.7533 99.6227 11.6 100.223 11.6C100.569 11.6 100.836 11.6467 101.023 11.74V15.22C100.809 15.06 100.576 14.9333 100.323 14.84C100.083 14.7467 99.7694 14.7 99.3827 14.7C98.9027 14.7 98.4694 14.7667 98.0827 14.9C97.6961 15.02 97.3894 15.16 97.1627 15.32V21.5L99.3627 21.7V23H92.6627V21.68ZM107.412 23.22C105.585 23.22 104.232 22.7067 103.352 21.68C102.472 20.64 102.032 19.2267 102.032 17.44C102.032 16.2267 102.259 15.18 102.712 14.3C103.165 13.42 103.799 12.7533 104.612 12.3C105.439 11.8333 106.405 11.6 107.512 11.6C108.912 11.6 109.979 11.9533 110.712 12.66C111.459 13.3667 111.845 14.3667 111.872 15.66C111.872 16.5133 111.812 17.2 111.692 17.72H105.432C105.499 18.8533 105.772 19.72 106.252 20.32C106.745 20.9067 107.432 21.2 108.312 21.2C108.805 21.2 109.319 21.12 109.852 20.96C110.399 20.7867 110.839 20.5933 111.172 20.38L111.732 21.6C111.385 21.9867 110.792 22.3533 109.952 22.7C109.125 23.0467 108.279 23.22 107.412 23.22ZM108.692 16.4L108.712 15.56C108.712 14.72 108.599 14.08 108.372 13.64C108.145 13.2 107.759 12.98 107.212 12.98C106.652 12.98 106.219 13.2267 105.912 13.72C105.605 14.2 105.439 15.0933 105.412 16.4H108.692ZM119.452 9.82L117.992 9.54V8.14H121.112C121.552 8.14 122.146 8.11333 122.892 8.06C123.066 8.04667 123.326 8.03333 123.672 8.02C124.032 8.00667 124.352 8 124.632 8C127.059 8 128.886 8.60667 130.112 9.82C131.339 11.0333 131.952 12.7733 131.952 15.04C131.952 16.6 131.652 17.9933 131.052 19.22C130.452 20.4467 129.592 21.4133 128.472 22.12C127.352 22.8133 126.032 23.16 124.512 23.16C124.099 23.16 123.479 23.1333 122.652 23.08C121.879 23.0267 121.379 23 121.152 23H117.912V21.68L119.452 21.46V9.82ZM122.832 21.52C123.299 21.6667 123.832 21.7267 124.432 21.7C125.632 21.6867 126.559 21.18 127.212 20.18C127.879 19.1667 128.212 17.62 128.212 15.54C128.212 13.62 127.886 12.12 127.232 11.04C126.592 9.94667 125.579 9.4 124.192 9.4C123.872 9.4 123.586 9.42 123.332 9.46C123.079 9.5 122.912 9.52667 122.832 9.54V21.52ZM133.346 21.68L134.566 21.5V13.98L133.386 13.62V12.06L136.706 11.62H136.766L137.326 12.04V12.52L137.266 14.18H137.326C137.42 13.8733 137.633 13.52 137.966 13.12C138.3 12.7067 138.72 12.3533 139.226 12.06C139.746 11.7533 140.306 11.6 140.906 11.6C141.253 11.6 141.52 11.6467 141.706 11.74V15.22C141.493 15.06 141.26 14.9333 141.006 14.84C140.766 14.7467 140.453 14.7 140.066 14.7C139.586 14.7 139.153 14.7667 138.766 14.9C138.38 15.02 138.073 15.16 137.846 15.32V21.5L140.046 21.7V23H133.346V21.68ZM145.376 10.16C144.856 10.16 144.436 10.0067 144.116 9.7C143.796 9.39333 143.636 9 143.636 8.52C143.636 7.96 143.809 7.5 144.156 7.14C144.516 6.78 144.996 6.6 145.596 6.6C146.196 6.6 146.656 6.75333 146.976 7.06C147.296 7.36667 147.456 7.76 147.456 8.24C147.456 8.81333 147.276 9.28 146.916 9.64C146.556 9.98667 146.049 10.16 145.396 10.16H145.376ZM144.156 13.98L142.816 13.6V12.1L146.816 11.62H146.856L147.476 12.04V21.5L148.676 21.68V23H142.916V21.68L144.156 21.5V13.98ZM149.045 11.88H154.725V13.16L153.465 13.4L155.145 18.68L155.665 20.5L156.085 18.7L157.745 13.4L156.525 13.16V11.88H161.145V13.16L160.105 13.4L156.465 23.16H153.785L149.825 13.4L149.045 13.16V11.88ZM166.689 23.22C164.863 23.22 163.509 22.7067 162.629 21.68C161.749 20.64 161.309 19.2267 161.309 17.44C161.309 16.2267 161.536 15.18 161.989 14.3C162.443 13.42 163.076 12.7533 163.889 12.3C164.716 11.8333 165.683 11.6 166.789 11.6C168.189 11.6 169.256 11.9533 169.989 12.66C170.736 13.3667 171.123 14.3667 171.149 15.66C171.149 16.5133 171.089 17.2 170.969 17.72H164.709C164.776 18.8533 165.049 19.72 165.529 20.32C166.023 20.9067 166.709 21.2 167.589 21.2C168.083 21.2 168.596 21.12 169.129 20.96C169.676 20.7867 170.116 20.5933 170.449 20.38L171.009 21.6C170.663 21.9867 170.069 22.3533 169.229 22.7C168.403 23.0467 167.556 23.22 166.689 23.22ZM167.969 16.4L167.989 15.56C167.989 14.72 167.876 14.08 167.649 13.64C167.423 13.2 167.036 12.98 166.489 12.98C165.929 12.98 165.496 13.2267 165.189 13.72C164.883 14.2 164.716 15.0933 164.689 16.4H167.969ZM178.95 9.82L177.31 9.54V8.14H184.05V9.54L182.37 9.82V21.48L184.05 21.7V23H177.33V21.68L178.95 21.46V9.82ZM186.81 13.98L185.63 13.62V12.06L189.27 11.62H189.33L189.85 12.04V12.78L189.83 13.24C190.296 12.8 190.89 12.4267 191.61 12.12C192.33 11.8133 193.083 11.66 193.87 11.66C194.67 11.66 195.296 11.8067 195.75 12.1C196.216 12.38 196.55 12.8333 196.75 13.46C196.963 14.0867 197.07 14.94 197.07 16.02V21.5L198.19 21.66V23H192.75V21.68L193.73 21.5V16.04C193.73 15.4 193.683 14.9067 193.59 14.56C193.51 14.2 193.363 13.94 193.15 13.78C192.936 13.62 192.63 13.54 192.23 13.54C191.616 13.54 190.923 13.8267 190.15 14.4V21.5L191.25 21.68V23H185.71V21.68L186.81 21.5V13.98ZM202.018 21.34C202.111 21.4867 202.324 21.62 202.658 21.74C203.004 21.86 203.351 21.92 203.698 21.92C204.244 21.92 204.658 21.8067 204.938 21.58C205.231 21.34 205.378 21.0333 205.378 20.66C205.378 20.26 205.191 19.9333 204.818 19.68C204.444 19.4133 203.831 19.0933 202.978 18.72L202.218 18.38C201.351 17.9933 200.698 17.5267 200.258 16.98C199.831 16.42 199.618 15.7133 199.618 14.86C199.618 14.2467 199.798 13.7 200.158 13.22C200.518 12.7267 201.038 12.34 201.718 12.06C202.398 11.78 203.198 11.64 204.118 11.64C204.758 11.64 205.311 11.68 205.778 11.76C206.244 11.84 206.718 11.94 207.198 12.06C207.518 12.1533 207.758 12.2067 207.918 12.22V14.94H206.138L205.618 13.4C205.551 13.28 205.391 13.1733 205.138 13.08C204.884 12.9733 204.598 12.92 204.278 12.92C203.771 12.92 203.371 13.0333 203.078 13.26C202.784 13.4733 202.638 13.7667 202.638 14.14C202.638 14.5667 202.804 14.9067 203.138 15.16C203.471 15.4 204.004 15.6867 204.738 16.02L205.158 16.2C206.238 16.6533 207.084 17.1467 207.698 17.68C208.311 18.2 208.618 18.92 208.618 19.84C208.618 20.8267 208.224 21.64 207.438 22.28C206.651 22.9067 205.491 23.22 203.958 23.22C203.251 23.22 202.624 23.16 202.078 23.04C201.531 22.9333 200.931 22.7867 200.278 22.6L199.618 22.42V19.76H201.518L202.018 21.34ZM219.104 23.2C218.624 23.2 218.277 23.1 218.064 22.9C217.851 22.6867 217.744 22.38 217.744 21.98V21.54C217.424 21.98 216.944 22.3733 216.304 22.72C215.664 23.0533 215.017 23.22 214.364 23.22C213.057 23.22 212.124 22.9 211.564 22.26C211.017 21.6067 210.744 20.52 210.744 19V13.44L209.804 13.18V11.9L213.564 11.64H213.584L214.024 11.92V19.08C214.024 19.9467 214.131 20.5533 214.344 20.9C214.557 21.2333 214.937 21.4 215.484 21.4C216.231 21.4 216.857 21.1467 217.364 20.64V13.44L216.124 13.14V11.9L220.084 11.64H220.144L220.624 11.92V21.62H221.684V22.9C221.231 22.9933 220.811 23.0667 220.424 23.12C220.051 23.1733 219.611 23.2 219.104 23.2ZM222.975 21.68L224.195 21.5V13.98L223.015 13.62V12.06L226.335 11.62H226.395L226.955 12.04V12.52L226.895 14.18H226.955C227.049 13.8733 227.262 13.52 227.595 13.12C227.929 12.7067 228.349 12.3533 228.855 12.06C229.375 11.7533 229.935 11.6 230.535 11.6C230.882 11.6 231.149 11.6467 231.335 11.74V15.22C231.122 15.06 230.889 14.9333 230.635 14.84C230.395 14.7467 230.082 14.7 229.695 14.7C229.215 14.7 228.782 14.7667 228.395 14.9C228.009 15.02 227.702 15.16 227.475 15.32V21.5L229.675 21.7V23H222.975V21.68ZM237.725 23.22C235.898 23.22 234.545 22.7067 233.665 21.68C232.785 20.64 232.345 19.2267 232.345 17.44C232.345 16.2267 232.571 15.18 233.025 14.3C233.478 13.42 234.111 12.7533 234.925 12.3C235.751 11.8333 236.718 11.6 237.825 11.6C239.225 11.6 240.291 11.9533 241.025 12.66C241.771 13.3667 242.158 14.3667 242.185 15.66C242.185 16.5133 242.125 17.2 242.005 17.72H235.745C235.811 18.8533 236.085 19.72 236.565 20.32C237.058 20.9067 237.745 21.2 238.625 21.2C239.118 21.2 239.631 21.12 240.165 20.96C240.711 20.7867 241.151 20.5933 241.485 20.38L242.045 21.6C241.698 21.9867 241.105 22.3533 240.265 22.7C239.438 23.0467 238.591 23.22 237.725 23.22ZM239.005 16.4L239.025 15.56C239.025 14.72 238.911 14.08 238.685 13.64C238.458 13.2 238.071 12.98 237.525 12.98C236.965 12.98 236.531 13.2267 236.225 13.72C235.918 14.2 235.751 15.0933 235.725 16.4H239.005Z" fill="white"/>
<defs>
<clipPath id="clip0_18113_1649">
<rect width="37" height="31.9436" fill="white" transform="translate(0 0.0273438)"/>
</clipPath>
</defs>
</svg>
