<svg width="48" height="48" viewBox="0 0 48 48" fill="none" xmlns="http://www.w3.org/2000/svg">
<path d="M22.0014 12.0002H28.0014L34.5814 5.40019C34.7674 5.21273 34.9886 5.06394 35.2323 4.96241C35.476 4.86087 35.7374 4.80859 36.0014 4.80859C36.2655 4.80859 36.5269 4.86087 36.7706 4.96241C37.0143 5.06394 37.2355 5.21273 37.4214 5.40019L42.5814 10.5802C42.9539 10.9549 43.163 11.4618 43.163 11.9902C43.163 12.5186 42.9539 13.0255 42.5814 13.4002L38.0014 18.0002H22.0014V22.0002C22.0014 22.5306 21.7907 23.0393 21.4156 23.4144C21.0406 23.7895 20.5319 24.0002 20.0014 24.0002C19.471 24.0002 18.9623 23.7895 18.5872 23.4144C18.2121 23.0393 18.0014 22.5306 18.0014 22.0002V16.0002C18.0014 14.9393 18.4229 13.9219 19.173 13.1718C19.9231 12.4216 20.9406 12.0002 22.0014 12.0002ZM10.0014 22.0002V30.0002L5.42143 34.5802C5.04893 34.9549 4.83984 35.4618 4.83984 35.9902C4.83984 36.5186 5.04893 37.0255 5.42143 37.4002L10.5814 42.5802C10.7674 42.7677 10.9886 42.9164 11.2323 43.018C11.476 43.1195 11.7374 43.1718 12.0014 43.1718C12.2655 43.1718 12.5269 43.1195 12.7706 43.018C13.0143 42.9164 13.2355 42.7677 13.4214 42.5802L22.0014 34.0002H30.0014C30.5319 34.0002 31.0406 33.7895 31.4156 33.4144C31.7907 33.0393 32.0014 32.5306 32.0014 32.0002V30.0002H34.0014C34.5319 30.0002 35.0406 29.7895 35.4156 29.4144C35.7907 29.0393 36.0014 28.5306 36.0014 28.0002V26.0002H38.0014C38.5319 26.0002 39.0406 25.7895 39.4156 25.4144C39.7907 25.0393 40.0014 24.5306 40.0014 24.0002V22.0002H26.0014V24.0002C26.0014 25.0611 25.58 26.0785 24.8299 26.8286C24.0797 27.5788 23.0623 28.0002 22.0014 28.0002H18.0014C16.9406 28.0002 15.9231 27.5788 15.173 26.8286C14.4229 26.0785 14.0014 25.0611 14.0014 24.0002V18.0002L10.0014 22.0002Z" fill="#EC5C2E"/>
</svg>
