<svg width="48" height="48" viewBox="0 0 48 48" fill="none" xmlns="http://www.w3.org/2000/svg">
<path d="M24 12C27.1826 12 30.2348 13.2643 32.4853 15.5147C34.7357 17.7652 36 20.8174 36 24C36 28.44 33.58 32.32 30 34.4V38C30 38.5304 29.7893 39.0391 29.4142 39.4142C29.0391 39.7893 28.5304 40 28 40H20C19.4696 40 18.9609 39.7893 18.5858 39.4142C18.2107 39.0391 18 38.5304 18 38V34.4C14.42 32.32 12 28.44 12 24C12 20.8174 13.2643 17.7652 15.5147 15.5147C17.7652 13.2643 20.8174 12 24 12ZM28 42V44C28 44.5304 27.7893 45.0391 27.4142 45.4142C27.0391 45.7893 26.5304 46 26 46H22C21.4696 46 20.9609 45.7893 20.5858 45.4142C20.2107 45.0391 20 44.5304 20 44V42H28ZM40 22H46V26H40V22ZM2 22H8V26H2V22ZM26 2V8H22V2H26ZM9.84 7L14.1 11.28L11.26 14.1L7 9.86L9.84 7ZM33.9 11.26L38.14 7L41 9.86L36.74 14.1L33.9 11.26Z" fill="#EC5C2E"/>
</svg>
