<svg width="24" height="24" viewBox="0 0 24 24" fill="none" xmlns="http://www.w3.org/2000/svg">
<path d="M2.03256 2.81971L2.03255 2.81969C1.86308 2.29297 2.41132 1.82167 2.90725 2.06931C2.90729 2.06933 2.90733 2.06935 2.90738 2.06937L21.6527 11.4405C21.6527 11.4406 21.6527 11.4406 21.6528 11.4406C22.1134 11.6709 22.1141 12.328 21.6524 12.5593L2.90725 21.9304L2.90722 21.9304C2.41205 22.178 1.86308 21.7067 2.03255 21.18L2.03256 21.18L4.93656 12.153L4.98582 11.9998L4.93656 11.8467L2.03256 2.81971ZM5.57053 12.3026L5.38244 12.3966L5.31808 12.5968L2.78233 20.4838L2.41841 21.6157L3.4819 21.0841L20.7597 12.4471L21.6543 11.9998L20.7596 11.5526L3.48114 2.9156L2.41724 2.38379L2.78162 3.51601L5.31962 11.4023L5.43124 11.7491H5.79558H14.2481C14.3144 11.7491 14.378 11.7754 14.4249 11.8223C14.4717 11.8692 14.4981 11.9328 14.4981 11.9991C14.4981 12.0654 14.4717 12.129 14.4249 12.1759C14.378 12.2227 14.3144 12.2491 14.2481 12.2491H5.79558H5.67758L5.57203 12.3018L5.57053 12.3026Z" fill="white" stroke="white"/>
</svg>
