<svg width="181" height="24" viewBox="0 0 181 24" fill="none" xmlns="http://www.w3.org/2000/svg">
<g clip-path="url(#clip0_18115_1724)">
<path d="M12.5889 19.8543L18.3628 23.3464C19.4202 23.9864 20.7141 23.0404 20.4359 21.8438L18.9055 15.2769L24.0115 10.8525C24.9437 10.0456 24.4428 8.51514 23.2185 8.41775L16.4985 7.84731L13.8689 1.64209C13.3959 0.515136 11.782 0.515136 11.3089 1.64209L8.67936 7.8334L1.95936 8.40383C0.735013 8.50122 0.234143 10.0317 1.16632 10.8386L6.2724 15.263L4.74197 21.8299C4.46371 23.0264 5.75762 23.9725 6.81501 23.3325L12.5889 19.8543Z" fill="#EC5C2E"/>
</g>
<g clip-path="url(#clip1_18115_1724)">
<path d="M51.5499 19.8543L57.3238 23.3464C58.3812 23.9864 59.6751 23.0404 59.3968 21.8438L57.8664 15.2769L62.9725 10.8525C63.9046 10.0456 63.4038 8.51514 62.1794 8.41775L55.4594 7.84731L52.8299 1.64209C52.3568 0.515136 50.7429 0.515136 50.2699 1.64209L47.6403 7.8334L40.9203 8.40383C39.696 8.50122 39.1951 10.0317 40.1273 10.8386L45.2333 15.263L43.7029 21.8299C43.4246 23.0264 44.7186 23.9725 45.776 23.3325L51.5499 19.8543Z" fill="#EC5C2E"/>
</g>
<path d="M90.5069 19.8543L96.2808 23.3464C97.3382 23.9864 98.6321 23.0404 98.3539 21.8438L96.8234 15.2769L101.93 10.8525C102.862 10.0456 102.361 8.51514 101.136 8.41775L94.4165 7.84731L91.7869 1.64209C91.3139 0.515136 89.6999 0.515136 89.2269 1.64209L86.5973 7.8334L79.8773 8.40383C78.653 8.50122 78.1521 10.0317 79.0843 10.8386L84.1904 15.263L82.6599 21.8299C82.3817 23.0264 83.6756 23.9725 84.733 23.3325L90.5069 19.8543Z" fill="#EC5C2E"/>
<g clip-path="url(#clip2_18115_1724)">
<path d="M129.464 19.8543L135.238 23.3464C136.295 23.9864 137.589 23.0404 137.311 21.8438L135.78 15.2769L140.887 10.8525C141.819 10.0456 141.318 8.51514 140.093 8.41775L133.373 7.84731L130.744 1.64209C130.271 0.515136 128.657 0.515136 128.184 1.64209L125.554 7.8334L118.834 8.40383C117.61 8.50122 117.109 10.0317 118.041 10.8386L123.147 15.263L121.617 21.8299C121.339 23.0264 122.633 23.9725 123.69 23.3325L129.464 19.8543Z" fill="#EC5C2E"/>
</g>
<g clip-path="url(#clip3_18115_1724)">
<path d="M168.413 19.8543L174.187 23.3464C175.244 23.9864 176.538 23.0404 176.26 21.8438L174.73 15.2769L179.836 10.8525C180.768 10.0456 180.267 8.51514 179.043 8.41775L172.323 7.84731L169.693 1.64209C169.22 0.515136 167.606 0.515136 167.133 1.64209L164.504 7.8334L157.784 8.40383C156.559 8.50122 156.058 10.0317 156.991 10.8386L162.097 15.263L160.566 21.8299C160.288 23.0264 161.582 23.9725 162.639 23.3325L168.413 19.8543Z" fill="#EC5C2E"/>
</g>
<defs>
<clipPath id="clip0_18115_1724">
<rect width="25.0435" height="24" fill="white" transform="translate(0.0664062)"/>
</clipPath>
<clipPath id="clip1_18115_1724">
<rect width="25.0435" height="24" fill="white" transform="translate(39.0234)"/>
</clipPath>
<clipPath id="clip2_18115_1724">
<rect width="25.0435" height="24" fill="white" transform="translate(116.938)"/>
</clipPath>
<clipPath id="clip3_18115_1724">
<rect width="25.0435" height="24" fill="white" transform="translate(155.891)"/>
</clipPath>
</defs>
</svg>
